<?xml version="1.0" encoding="UTF-8"?>
<svg id="Layer_1" xmlns="http://www.w3.org/2000/svg" viewBox="0 0 2000 2000">
  <defs>
    <style>
      .cls-1 {
        fill: #bf492c;
      }

      .cls-2 {
        fill: #eb7023;
      }

      .cls-3 {
        opacity: .5;
      }

      .cls-3, .cls-4, .cls-5, .cls-6, .cls-7, .cls-8, .cls-9, .cls-10, .cls-11, .cls-12, .cls-13, .cls-14, .cls-15, .cls-16, .cls-17, .cls-18, .cls-19, .cls-20, .cls-21 {
        stroke-miterlimit: 10;
      }

      .cls-3, .cls-18 {
        fill: #302d2f;
        stroke: #58595b;
      }

      .cls-22 {
        fill: #f0f7ea;
      }

      .cls-4, .cls-5, .cls-6, .cls-10, .cls-14, .cls-21 {
        fill: none;
      }

      .cls-4, .cls-5, .cls-7, .cls-9, .cls-20 {
        stroke-width: 2px;
      }

      .cls-4, .cls-13, .cls-21 {
        stroke: #e6e7e8;
      }

      .cls-5 {
        stroke: #ec1c24;
      }

      .cls-6 {
        stroke: #ee6b23;
      }

      .cls-6, .cls-8, .cls-10 {
        stroke-width: 4px;
      }

      .cls-7, .cls-9, .cls-11, .cls-16, .cls-17 {
        fill: #f05a28;
      }

      .cls-7, .cls-16, .cls-17, .cls-20 {
        stroke: #ee4036;
      }

      .cls-23 {
        fill: #90d5e5;
      }

      .cls-8 {
        stroke: #404041;
      }

      .cls-8, .cls-19 {
        fill: #231f20;
      }

      .cls-24 {
        fill: #f7941d;
      }

      .cls-25 {
        fill: #87898b;
      }

      .cls-9 {
        stroke: #f05a28;
      }

      .cls-26 {
        letter-spacing: -.01em;
      }

      .cls-27 {
        letter-spacing: 0em;
      }

      .cls-28 {
        fill: #fff;
      }

      .cls-29 {
        fill: #5c5b5a;
      }

      .cls-10 {
        stroke: #bcbec0;
      }

      .cls-30 {
        fill: #f05722;
      }

      .cls-11, .cls-12 {
        stroke: #bf492c;
      }

      .cls-11, .cls-12, .cls-14, .cls-17, .cls-21 {
        stroke-width: 3px;
      }

      .cls-12, .cls-20 {
        fill: #ef7b28;
      }

      .cls-31 {
        letter-spacing: -.02em;
      }

      .cls-13, .cls-32 {
        fill: #e6e7e8;
      }

      .cls-33 {
        fill: #ee6b23;
      }

      .cls-14 {
        stroke: #fff;
      }

      .cls-15 {
        stroke: #6d6e70;
      }

      .cls-15, .cls-34 {
        fill: #6d6e70;
      }

      .cls-35 {
        letter-spacing: -.02em;
      }

      .cls-36, .cls-19 {
        font-family: CooperBlack, 'Cooper Black';
        font-size: 76.06px;
      }

      .cls-37 {
        fill: #a6a8ab;
      }

      .cls-38 {
        fill: #58595b;
      }

      .cls-39 {
        fill: #555658;
      }

      .cls-18 {
        opacity: .25;
      }

      .cls-19 {
        opacity: .2;
        stroke: #231f20;
      }

      .cls-40 {
        fill: #ee4036;
      }

      .cls-41 {
        fill: #ec1c24;
      }

      .cls-42 {
        fill: #ed5224;
      }

      .cls-43 {
        letter-spacing: -.06em;
      }

      .cls-44 {
        fill: #c3e6e8;
      }

      .cls-45 {
        letter-spacing: .01em;
      }

      .cls-46 {
        fill: #808184;
      }

      .cls-47 {
        fill: #4a4a4c;
      }

      .cls-48 {
        fill: #737477;
      }

      .cls-49 {
        fill: #5c5d60;
      }

      .cls-50 {
        fill: #278ebd;
      }

      .cls-51 {
        letter-spacing: 0em;
      }
    </style>
  </defs>
  <g>
    <g>
      <path class="cls-14" d="M785.94,1218.83c8.91,15.48,24.59,38.91,50.22,60.46,39.02,32.81,68.56,33.91,111.85,64.15,18.02,12.58,43.4,33.7,68.31,68.85,31.44-12.58,73.3-33.44,115.91-68.3,63.63-52.06,98.72-110.61,116.79-147.05,9.21,5.63,36.41,20.58,72.36,16.57,21.83-2.43,38.08-10.87,47.18-16.57-14.99-10.99-39.37-31.86-58.69-65.67-16.24-28.43-22.56-54.89-25.26-72.12,14.4,2.35,45.77,5.47,81.73-7.93,39.94-14.88,62.77-41.65,71.57-53.21-12.28,1.7-45.38,4.63-81.44-13.13-36.99-18.21-54.95-47.28-60.91-58.05,7.36,2.19,21.81,5.41,39.53,2.13,20.63-3.82,34.34-14.35,40.22-19.47-25.67-3.04-51.34-6.08-77.01-9.13,10.51-2.84,23.7-7.48,37.89-15.27,17.52-9.62,30.39-20.68,39.12-29.44-18.43,3-48.26,5.47-83.53-2.36-29.45-6.54-52.04-17.9-66.78-26.85,6.14,2.07,15.6,4.46,27.3,4.37,11.01-.09,19.95-2.36,25.92-4.37-14.05-6.58-28.36-13.52-42.91-20.85-15.93-8.03-31.32-16.11-46.17-24.19,5.4,3.4,29.23,17.55,59.33,11.03,18.2-3.94,30.4-13.64,36.14-18.92-1.72.5-15.03,4.13-25.73-4.11-4.53-3.49-6.87-7.79-8.04-10.49,12.27.09,36.46-1.38,62.86-14.73,28.22-14.27,44.21-34.67,51.2-44.87-30.33.37-71.75-2.45-118.64-15.99-33.19-9.59-60.7-22.11-82.12-33.79,3.39-3.25,7.86-6.73,13.58-9.52,20.18-9.86,40.54-3.73,46.6-1.64-3.43-3.65-23.81-24.63-56.47-24.67-28.54-.04-47.37,15.93-51.87,19.96"/>
      <path class="cls-14" d="M599.57,1067.68c2.81.39,22.93,18.62,27.95,19.68,23.59,5,28.2,11.86,38.53,11.18,17.1-1.13,29.16-16.43,34.46-23.15,12.78-16.21,8.3-24.41,18.93-43.51,2.48-4.46,7.36-12.34,40.51-40.51,11.99-10.19,28.6-23.82,49.24-39.27"/>
    </g>
    <g>
      <path class="cls-28" d="M1157.7,1144.03c5.67-34.53,31.63-214.2-87.8-364.23-55.54-69.78-121.44-106.65-163.02-125.31,2.24,19.63,4.48,39.26,6.72,58.89,10.23,8.72,27.65,26.02,38.83,53.36,17.31,42.35,8.07,80.5,4.46,93.03,23.97,38.72,53.06,96.2,69.54,170.38,28.16,126.71,4.01,232.28-12.17,285.12h19.12c9.22-13.81,20.53-34.25,27.82-60.85,11.24-41.03,7.24-76.11,3.48-95.62,3.18-.23,47.7-2.71,73.89,32.16,21.35,28.43,21.35,69.48-.87,100.84,25.79-28.98,51.58-57.95,77.37-86.93.31-18.05-.67-39.21-4.35-62.59-5.43-34.55-15.08-63.29-24.34-85.19-.94,12.99-3.55,30.28-10.43,49.55-5.48,15.35-12.21,27.85-18.25,37.38Z"/>
      <path class="cls-28" d="M1081.19,1175.62c2.14,22.55,2.44,54.68-6.63,91.51-5.25,21.35-12.45,39.39-19.46,53.83,5.26.71,31.79,3.77,56.31-14.49,23.83-17.74,28.86-43.01,29.81-48.45.69-4.64,4.21-31.52-14.49-55.48-16.83-21.56-40.14-26.02-45.55-26.91Z"/>
      <path class="cls-28" d="M813.99,989.6c-4.56,19.73-8.93,36.32-12.4,48.84-19.19,69.18-31.19,87.3-47.7,98.46-5.94,4.01-11.41,6.42-15.06,7.81,3.93,10.58,9.45,22.92,17.29,35.98,5.93,9.88,12.08,18.31,17.85,25.38,6.47-13.07,13.12-28.84,18.69-47.14,4.53-14.89,7.51-28.72,9.48-41,2.8-6.93,9.89-10.93,16.74-9.76,5.75.98,10.5,5.48,12.05,11.43-.23,9.47.6,24.15,6.64,40.73,4.35,11.94,10.04,21.15,14.78,27.61,3.78-28.26,5.96-72.73-7.81-124.12-8.21-30.64-19.9-55.54-30.55-74.23Z"/>
      <path class="cls-28" d="M821.05,634.45c-4.5-.19-13.08.06-22.48,4.47-12.57,5.9-18.95,15.62-21.22,19.51.13-3.9,1.1-18.46,12.61-30.26,6.89-7.07,14.56-10.08,18.77-11.37,2.41,2.24,5.28,5.34,7.95,9.41,1.94,2.97,3.35,5.79,4.37,8.23Z"/>
      <path class="cls-28" d="M766.47,660.73c1.5-7.55,5.65-22.77,18.33-36.65,6.86-7.5,14.08-12.27,19.54-15.23-1.18-2.54-2.34-5.4-3.35-8.58-2.35-7.38-3.16-14.1-3.35-19.46-5.88,4.35-20.8,16.62-28.33,38.53-6.28,18.28-4.26,34.08-2.84,41.38Z"/>
      <path class="cls-28" d="M742.83,663.03c3.53-16.09,10.98-39.74,27.82-63.81,8.14-11.64,16.74-20.87,24.48-28.03-.89-6.14-1.53-13.19-1.57-20.99-.04-6.55.35-12.56.95-17.92-10.25,8.43-27.61,25.02-39.75,51.46-15.79,34.41-13.66,65.74-11.92,79.29Z"/>
      <path class="cls-28" d="M729.66,660.73c-2.47-3.49-17.85-26.04-11.1-55.58,7.17-31.37,33.43-44.97,36.96-46.72-6.5,10.58-14.18,25.55-19.54,44.57-6.61,23.45-7.1,43.86-6.32,57.73Z"/>
      <path class="cls-28" d="M703.93,602.57c-4.37-14.26-8.62-32.55-10.41-54.06-1.93-23.06-.47-43,1.77-58.46,1.21,7.97,4.97,25.48,18.78,42.16,10.89,13.16,23.2,19.98,30.3,23.25-5.67,2.36-15.24,7.22-24.09,16.78-10.81,11.66-14.8,24.13-16.35,30.33Z"/>
      <path class="cls-28" d="M869.58,547.33c6.33,5.99,14.35,14.87,21.44,27.05,8.78,15.09,12.59,29.17,14.38,38.74,9.86-.89,45.77-5.32,74.32-35.33,38.97-40.98,31.02-94.75,29.97-101.12-6.17,10.96-28.2,46.86-73.58,63.59-28.17,10.39-53.14,8.89-66.52,7.07Z"/>
      <path class="cls-28" d="M936.1,635.04c4.72,2.57,36.32,19.16,66.28,5.1,27.88-13.09,35.6-43.94,40.2-62.36,6.69-26.78,3.02-49.65,0-62.19-5.85,17.18-18.34,46.46-44.83,74.62-22.52,23.93-46.15,37.49-61.65,44.83Z"/>
      <path class="cls-28" d="M1042.58,628.91c.5-3.93,1.61-9.11,4.14-14.73,2.57-5.74,6.43-11.41,14.99-19.38,6.76-6.29,17.65-15.13,33.49-23.19-5.91,12.64-11.82,25.28-17.73,37.92-4.81,4.58-11.96,10.28-21.71,14.73-4.76,2.17-9.23,3.64-13.18,4.65Z"/>
      <path class="cls-28" d="M1036.64,649.07c11.06-3.71,23.6-8.71,36.96-15.51,14.46-7.36,26.68-15.2,36.7-22.48-1.71,4.67-5.01,11.91-11.37,19.13-6.97,7.91-14.49,12.25-19.13,14.47-6.87,2.08-15.61,4.02-25.84,4.65-6.42.4-12.25.21-17.32-.26Z"/>
      <path class="cls-28" d="M1024.15,673.96c13.32-6.08,32.3-12.86,55.82-15.51,40.13-4.52,72.28,5.38,89.25,12.06,18.87,9.08,42.68,18.63,70.98,25.84,33.98,8.66,64.19,11.34,87.87,11.72-19.39,11.49-36.78,18.25-49.96,22.4-53.7,16.89-101.99,10.69-150.9,3.91-22.63-3.14-41.56-7.12-55.51-10.45,2.72-2,6.64-4.52,11.72-6.55,16.77-6.71,32.17-2.57,32.39-3.79.15-.81-6.55-3.16-33.77-9.48,4.44-1.8,10.53-4.03,17.92-6.03,37.19-10.05,66.56-3.09,66.8-4.84.23-1.65-25.93-8.45-69.9-13.77-30.51-3.69-55.75-5-72.71-5.51Z"/>
      <path class="cls-28" d="M1332.82,865.65c-25.45,1.43-77.45.85-134.3-26.5-45.2-21.74-74.34-51.19-90.02-69.69,6.2,3.45,18.44,9.15,34.85,9.8,13.69.54,24.54-2.67,30.85-5.08-21.5-5.6-35.68-14.41-44.84-21.73-10.86-8.68-17.84-17.78-33.08-23.73-9.68-3.78-18.5-4.66-24.58-4.79,2.68,9.46,6.98,15.33,10.67,19.04,12.84,12.9,35.22,16.73,35.22,16.7,0,0,0,0-.01,0-11.37-1.81-22.75-3.63-34.12-5.44,3.17,12.14,14.06,47.36,48.28,75.14,30.67,24.9,62.99,29.91,75.86,31.22-8.41,2.86-20.78,5.99-35.93,6.17-12.21.14-22.51-1.67-30.13-3.63,7.87,15.93,21.09,37.79,42.83,58.8,35.92,34.72,75.35,48.04,95.82,53.36-6.7,1.81-16.64,3.67-28.67,2.9-15.19-.96-26.88-5.66-33.76-9.07,10.49,10.25,32.85,29.31,67.15,39.2,41.51,11.96,76.32,3.52,90.38-.73-11.53-2.15-29.21-6.64-48.28-17.06-37.4-20.45-46.81-45.53-87.48-76.59-10.97-8.38-27.8-19.93-50.82-30.85,12.14,1.78,25.64,2.93,40.29,2.9,43.17-.08,78.82-10.38,103.81-20.33Z"/>
      <path class="cls-28" d="M644.08,1065.87c-5.5.17-14.27-.26-24.17-3.93-7.48-2.77-13.12-6.47-16.93-9.42-1.07-6.3-2.14-12.59-3.21-18.89-.58-3.43,2.61-6.3,5.96-5.35l19.07,5.4c.9-5.49,1.81-10.99,2.71-16.48-6.88-7.64-7.35-18.43-1.95-25.13,3.74-4.64,10.41-7.45,17.13-5.93,6.28,1.42,11.85,6.44,12.96,12.96,1.38,8.15-4.51,17.04-14.23,19.48-1.21,6.47-2.42,12.94-3.63,19.41,7.41.71,14.82,1.42,22.22,2.13,3.78-4.34,13.01-16.13,14.75-33.78,1.14-11.61-1.43-20.95-3.34-26.22-1.25-2.85-3.26-6.41-6.54-9.8-9.29-9.59-21.63-10.42-25.2-10.53.94-4.42,2.55-11.15,5.21-19.11,15.1-45.16,43.33-68.01,67.64-96.84,14.68-17.41,33.87-44.04,50.62-82.46,7.6,2.34,15.21,4.68,22.81,7.03l21.82-43.14,13.88,28.26c-11.9,4.96-23.8,9.92-35.7,14.88,3.73,13.6,2.57,9.37,6.3,22.97,5.94-.85,11.89-1.69,17.83-2.54,1.43-.2,2.18,1.64,1.03,2.5l-17.23,12.77c-.56.47-2.34,2.12-2.74,4.82-.65,4.43,3.07,7.45,3.24,7.58,3.96.59,13.77,1.49,24.65-3.4,8.88-3.99,14.13-10.71,19.97-17.92,3.13-3.86,3.96-5.49,10.55-15.3,5.37-7.99,9.85-14.39,12.76-18.5,2.16-.72,19.38-6.15,34.68,4.29,9.47,6.45,13.17,15.55,14.41,19.1,2.87,6.94,7.13,20.07,5.36,36.46-.91,8.45-3.18,15.42-5.36,20.57-10.43,12.57-20.87,25.13-31.3,37.7-1.66,3.12-7.96,15.32-4.4,18.6,3.53,3.25,14.93-4,20.6-7.6,10.48-6.66,25.27-18.18,39.89-38.28,4.83-13.28,14.06-44.43,3.47-76.85-4.03-12.34-10.28-22.87-13.17-27.45-9.68-15.37-20.78-25.97-29.14-32.72-.45-5.77-4.53-58.4-4.9-63.17,5.1-14.97,9.53-36.31,2.19-58.04-8.11-24.04-25.07-32.11-42.43-54.75-12.17-15.88-26-40.82-31.53-79.8-7.58,14.72-27.62,58.4-17.75,114.02,6.81,38.34,24.78,65.17,35.26,78.57-14.73,1.8-33.42,5.48-54.08,13.14-23.94,8.88-42.58,20.16-55.8,29.61-9.39-8.7-18.77-17.4-28.16-26.1l-28.85,26.1c1.83,13.74,2.93,29.69,2.28,47.39-.35,9.57-1.17,18.52-2.28,26.78-10.82,32.03-26.96,70.68-51.45,111.81-19.18,32.2-39.31,58.93-57.75,80.49.84,5.06,3.12,14.31,10.18,23.2,3.55,4.46,7.33,7.61,10.42,9.77.29,3.53.33,7.62-.16,12.13-1.19,10.94-5,19.47-8.09,24.95l23.35,40.52c7.84.52,15.86,1.15,24.05,1.92,6.95.65,13.77,1.38,20.44,2.16M877.11,646.04h-15.82c-11.2-10.86-41.29-43.04-44.87-91.29-1.12-15.17.63-28.5,3.11-39.16,4.88,10.87,13.12,26.53,26.71,42.79,14.42,17.25,23.72,21.86,30.08,35.79,4.74,10.37,8.2,26.69.78,51.87Z"/>
    </g>
  </g>
  <path class="cls-34" d="M1418.91,1063.06c6.38-5.59,9.29-10.99,10.77-14.84,2.63-6.85,2.73-12.08,6.97-21.89.73-1.69,1.73-3.46,3.19-5.43,6.85-9.25,17.28-12.55,19.62-13.26,11.59-3.53,24.38-.14,32.37,1.83,7.03,1.73,17.31,4.1,30.97,6.65-1.86,2.04-3.73,4.09-5.59,6.13-11.65-3.12-21.52-5.09-28.79-6.35-16.68-2.89-21.71-2.42-26.08-1.3-3.53.9-12.12,3.09-17.73,10.2-5.49,6.95-3,11.13-8.59,24.39-2.66,6.31-5.73,11.03-7.78,13.88h-9.32Z"/>
  <path class="cls-38" d="M1505.99,1096c3.13,8.05,11.73,26.97,31.95,41.99,4.18,3.1,26.37,19.06,54.84,18.69,42.71-.56,79.99-37.61,92.14-78.11,13.35-44.5-3.88-92.48-35.7-118.03-6.81-5.47-26.75-21-56.44-21.27-30.15-.28-50.96,15.36-57.03,20.3,51.28,6.76,88.6,44.35,91.11,85.63,2.23,36.71-22.61,83.87-60.9,86.18-34.03,2.05-58.07-32.58-59.97-35.39Z"/>
  <path class="cls-47" d="M1592.77,1156.68c41.18-2.5,68-34.61,72.02-39.56,25.77-31.79,24.96-67.48,24.49-76.37-.54-10.2-3.71-43.61-30.41-71.17-13.74-14.18-28.54-21.49-37.8-25.18-7.29-2.54-20.79-6.19-37.78-4.58-17.26,1.64-29.98,7.92-36.67,11.84,8.63-.19,44.38-.02,74.5,26.96,6.03,5.4,25.99,23.8,31.93,54.28,8.89,45.67-18.47,94.03-53.21,108.55-24.57,10.27-49.96,2.41-50.33,5.59-.34,2.84,20.35,11.03,43.27,9.64Z"/>
  <path class="cls-38" d="M1607.59,1004.64l-72.22,1.46s-27.43,12.1-28.73,44.09c-1.3,32,23.54,39.99,23.54,39.99l82.1.88c-24.21,1.92-45.28-15.79-47.76-38.27-2.67-24.18,16.89-47.28,43.07-48.15Z"/>
  <polygon class="cls-34" points="1533.4 961.55 1583.06 1012.92 1575.35 1019.85 1528.46 966.13 1533.4 961.55"/>
  <polyline class="cls-34" points="1565.27 1057.33 1499.04 1075.84 1502.46 1086.89 1567.48 1064.91"/>
  <polyline class="cls-34" points="1594.42 1089.27 1579.69 1155.75 1592.77 1156.68 1603.78 1090.95 1595.46 1089.58"/>
  <polygon class="cls-34" points="1619.68 1006.5 1625.26 1008.4 1650.93 961.43 1638.83 952.54 1619.68 1006.5"/>
  <circle class="cls-25" cx="1607.59" cy="1047.98" r="43.34"/>
  <path class="cls-48" d="M1578.8,1048.23c0-21.5,15.67-39.29,36.2-42.7-2.33-.39-4.7-.64-7.14-.64-23.93,0-43.34,19.4-43.34,43.34s19.4,43.34,43.34,43.34c2.44,0,4.81-.25,7.14-.64-20.53-3.41-36.2-21.2-36.2-42.7Z"/>
  <path class="cls-46" d="M1584.02,939.7c-71.45-2.54-128.02,48-131.1,103.61-2.18,39.4,22.22,78.69,60.9,101.17,7.75,2.38,16.16,4.59,25.18,6.46,29.49,6.1,53.72,6.22,53.77,5.74.03-.35-13.04.38-28.61-4.9-20.15-6.83-32.8-19.78-37.83-25.03-25.34-26.5-29.3-59.06-30.06-71.09-.34-5.42-1.47-29.41,10.56-56.43,3.66-8.23,9.79-21.63,23.07-34.3,19.68-18.76,43.35-23.55,54.12-25.23Z"/>
  <path class="cls-49" d="M1551.07,1150.94c-9.03-1.87-17.43-4.08-25.18-6.46-38.68-22.48-63.08-61.77-60.9-101.17,2.89-52.24,53-100.01,118.3-103.49.24-.04.5-.08.73-.12-71.45-2.54-128.02,48-131.1,103.61-2.18,39.4,22.22,78.69,60.9,101.17,7.75,2.38,16.16,4.59,25.18,6.46,29.49,6.1,53.72,6.22,53.77,5.74.02-.24-6.03.02-14.79-1.45-7.93-.9-17.13-2.27-26.92-4.29Z"/>
  <polyline class="cls-41" points="1645.96 1068.14 1683.53 1083.87 1686.21 1073.61 1649.11 1060.43 1645.96 1069.23"/>
  <g>
    <path class="cls-15" d="M556.84,1102.54v-25.79l-27.49-3.11-5.9-19.58,21.75-19.58-13.98-23.31-25.48,12.12-14.61-14.92,8.39-28.59-21.75-13.67-18.02,23.93-18.96-4.35-4.97-29.77h-26.42l-4.04,28.22-19.58,5.59-19.27-21.44-22.38,12.74,9.01,26.73-13.36,14.61-26.73-9.94-12.74,22.69,21.13,19.27-5.59,18.34-28.56,5.28v26.11l27.01,5.28,6.22,19.27-20.82,16.47,11.81,24.24,26.11-8.7,14.92,13.67-8.08,27.35,21.75,12.12,18.03-19.58,18.34,4.04,6.84,27.21h25.48l5.28-27.21,19.58-4.97,17.71,22.06,24.55-14.92-9.32-26.73,13.36-12.74,26.42,8.39,13.67-22.38-21.75-18.34,3.42-19.27,29.04-6.84ZM422.06,1135.28c-24.63,0-44.59-19.96-44.59-44.59s19.96-44.59,44.59-44.59,44.59,19.96,44.59,44.59-19.96,44.59-44.59,44.59Z"/>
    <path class="cls-3" d="M556.84,1102.54v-25.79l-27.49-3.11-5.9-19.58,21.75-19.58-13.98-23.31-25.48,12.12-3.76-3.84c-9.59,18.74-22.82,36.72-39.32,52.86,2.55,5.61,4,11.82,4,18.38,0,24.63-19.96,44.59-44.59,44.59-13,0-24.67-5.6-32.82-14.48-26.68,11.13-53.99,16.58-79.83,16.63l-9.72,7.69,11.81,24.24,26.11-8.7,14.92,13.67-8.08,27.35,21.75,12.12,18.02-19.58,18.34,4.04,6.84,27.21h25.48l5.28-27.21,19.58-4.97,17.71,22.06,24.55-14.92-9.32-26.73,13.36-12.74,26.42,8.39,13.67-22.38-21.75-18.34,3.42-19.27,29.04-6.84Z"/>
  </g>
  <g>
    <path class="cls-15" d="M454.83,1301.59l.88-13.47-14.25-2.57-2.41-10.43,12.03-9.48-6.5-12.65-13.72,5.46-7.12-8.29,5.36-14.64-10.89-7.89-10.23,11.88-9.75-2.92-1.58-15.72-13.8-.91-3.08,14.6-10.42,2.25-9.33-11.86-12.12,5.89,3.79,14.27-7.48,7.17-13.62-6.11-7.43,11.41,10.38,10.79-3.55,9.38-15.1,1.78-.9,13.63,13.92,3.69,2.59,10.28-11.44,7.89,5.34,13.06,13.93-3.65,7.32,7.65-5.16,14.01,10.95,7.08,10.09-9.61,9.44,2.74,2.64,14.44,13.31.87,3.69-14.03,10.4-1.93,8.49,12.13,13.33-6.95-3.95-14.28,7.42-6.2,13.51,5.29,7.91-11.22-10.73-10.32,2.45-9.95,15.4-2.57ZM383.32,1314.07c-12.86-.84-22.6-11.96-21.76-24.82s11.96-22.6,24.82-21.76c12.86.84,22.6,11.96,21.76,24.82s-11.96,22.6-24.82,21.76Z"/>
    <path class="cls-18" d="M454.83,1301.59l.88-13.47-14.25-2.57-2.41-10.43,12.03-9.48-6.5-12.65-13.72,5.46-1.83-2.14c-5.65,9.46-13.18,18.4-22.35,26.26,1.14,3.02,1.68,6.31,1.46,9.74-.84,12.86-11.96,22.6-24.82,21.76-6.79-.45-12.69-3.77-16.65-8.69-14.32,4.9-28.76,6.81-42.26,5.95l-5.34,3.68,5.34,13.07,13.93-3.65,7.32,7.65-5.16,14.01,10.95,7.08,10.09-9.61,9.44,2.74,2.64,14.44,13.31.87,3.69-14.03,10.4-1.93,8.49,12.13,13.33-6.95-3.95-14.28,7.42-6.2,13.51,5.29,7.91-11.22-10.73-10.32,2.45-9.95,15.4-2.57Z"/>
  </g>
  <rect class="cls-39" x="706.68" y="1182.9" width="32.39" height="32.39"/>
  <g>
    <g>
      <path class="cls-30" d="M1155.89,1144.72c.07,12.2-.07,26.16,0,38.37,1.7-1.75,12.05-10.92,23.89-9.41,5.97.76,15.08,4.55,15.41,10.09.12,1.98-.91,3.73-1.99,5.04,1.97-.44,8.41-2.14,12.01-7.97,4.97-8.06,1.21-18.97.5-20.51-5.68-12.26-26.67-18.75-49.82-15.61Z"/>
      <polyline class="cls-30" points="1390.96 1184.8 1322.37 1184.8 1322.37 1098.73 1359.56 1063.9 1590.33 1064.24 1590.33 1151.15 1552.43 1189.05 1520.67 1189.05 1520.67 1369.78 1482.07 1410.55 1388.77 1410.29"/>
      <polygon class="cls-30" points="1064.66 1369.78 1064.38 1411.04 1156.01 1411.04 1155.89 1369.78 1064.66 1369.78"/>
      <polygon class="cls-30" points="1169.26 1268.99 1169.26 1287.59 1201.56 1410.37 1298.77 1410.37 1309.37 1369.78 1213.64 1369.78 1169.26 1268.99"/>
      <path class="cls-30" d="M764.36,1281.22c-.17,6.69-.05,16.34,1.41,27.82,2.77,21.81,6.74,53.02,28.23,75.54,27.34,28.66,68.16,27.66,82.46,27.3,13.59-.34,53-1.31,79.84-30.14,25-26.87,28.08-61.8,29.28-77.84.79-10.53.3-19.35-.3-25.49-8.69,55.74-57.29,96.66-112.45,95.8-52.87-.82-98.84-39.84-108.47-92.99Z"/>
      <path class="cls-30" d="M612.11,1226.26c-.52-8.34-3.12-14.01-5.4-17.64-10.92-17.23-37.86-23.9-67.4-16.59v217.32l-90.22,1.01-39.43-39.43,3.19-220.49,126.46-.64c2.48-.42,34.06-5.2,56.95,19.04,22.65,24,16.42,54.84,15.85,57.42Z"/>
      <path class="cls-30" d="M666.18,1322.03c-24.33,27.19-56.16,35.2-81.24,41.87-28.85,7.67-53.86,7.87-70.5,6.78l38.52,38.52c19.6.52,49.09-1.78,78.88-17.53,69.72-36.85,108.25-130.22,83.52-208.85-15.26-48.54-50.24-77.49-68.79-90.48,13.65,16.35,56.82,72.25,50.65,146.36-1.51,18.12-4.53,53.7-31.04,83.32Z"/>
    </g>
    <g>
      <path class="cls-24" d="M410.24,1369.78h91.23v-218.64h46.2s62.84,2.55,64.25,65.28c1.41,62.73-67.53,63.2-67.53,63.2h-28.09v91.06h47.79s139.44-9.71,140.07-156.84c.63-147.13-146.96-150.78-146.96-150.78l-146.92,2.24"/>
      <path class="cls-24" d="M763.79,1063.06v214.82s2.28,99.54,106.96,99.54c30.31,0,52.67-8.3,69.14-20.1,26.1-18.69,43.36-48.85,45.39-78.92.31-4.57.22-8.37.08-10.93.49-68.14.99-136.27,1.48-204.41h-92.5v195.72s2.48,28.09-19.32,28.09-20.38-25.15-20.38-25.15v-198.66h-90.85Z"/>
      <path class="cls-24" d="M1064.09,1063.06v306.72h91.23v-224.26h16.18s33.26-1.96,33.26,21.8-21.57,24.72-28.76,24.72h-7.3v78.87l44.38,98.87h95.72l-52.58-126.51s40.67-26.36,40.67-78.42c0,0,1.45-101.79-111.85-101.79h-120.95Z"/>
      <polygon class="cls-24" points="1358.99 1063.06 1589.76 1063.06 1589.76 1151.15 1520.1 1151.15 1520.1 1369.78 1428.87 1369.78 1428.87 1151.15 1358.99 1151.15 1358.99 1063.06"/>
    </g>
  </g>
  <path class="cls-6" d="M514.44,1074.11c21.74-2.04,53.82-1.94,89.42,10.07,12.48,4.21,23.42,9.22,32.82,14.31"/>
  <path class="cls-34" d="M1474.27,1151.37c-.99,0-1.78.81-1.73,1.8.53,9.97.08,30.41-11.5,52.14-13.35,25.03-33.76,37.29-43.08,42.01-1.39.7-2.99.79-4.46.29-4.73-1.6-11.99-4.86-18.59-11.6-3.43-3.49-8.17-9.04-10.71-17.5-4.89-16.32,2.99-30.62,4.79-33.72h-6.84c-2.39,5.74-3.63,10.77-4.33,14.48-.85,4.52-2,11.02-.59,19.22.03.16.1.72.24,1.27,2.92,11.55,9.93,18.65,13.48,22.15,9.05,8.94,19.12,12.59,24.9,14.12,1.2.32,2.46.15,3.54-.46,10.76-6,32.89-20.48,47.98-48.37,11.84-21.9,14.13-42.42,14.48-54.06.03-.98-.75-1.8-1.73-1.8h-5.85Z"/>
  <rect class="cls-29" x="1463.82" y="1142.45" width="24.33" height="8.92" rx="1.18" ry="1.18"/>
  <circle class="cls-7" cx="489.3" cy="1073.18" r="4.83"/>
  <circle class="cls-16" cx="424.06" cy="1338.63" r="4.83"/>
  <circle class="cls-7" cx="643.98" cy="1105.44" r="4.83"/>
  <circle class="cls-16" cx="591.24" cy="1331.71" r="4.83"/>
  <g>
    <line class="cls-17" x1="489.3" y1="1092.73" x2="489.3" y2="1082.38"/>
    <line class="cls-17" x1="484.13" y1="1087.56" x2="494.48" y2="1087.56"/>
  </g>
  <g>
    <line class="cls-17" x1="591.24" y1="1320.64" x2="591.24" y2="1310.29"/>
    <line class="cls-17" x1="586.06" y1="1315.46" x2="596.42" y2="1315.46"/>
  </g>
  <line class="cls-17" x1="418.89" y1="1323.71" x2="429.24" y2="1323.71"/>
  <line class="cls-17" x1="638.81" y1="1119.71" x2="649.16" y2="1119.71"/>
  <path class="cls-5" d="M643.98,1105.44c1.05-.75,16.79-11.64,32.27-4.83,14.57,6.41,22.86,25.81,17.73,34.25-.57.94-1.25,1.65-1.88,2.18"/>
  <path class="cls-5" d="M611.1,1219.55c-.67.17-1.64.42-2.8.75-22.67,6.59-57.48,28.97-56.86,60.09.42,20.93,16.76,40.82,39.8,51.32"/>
  <path class="cls-5" d="M489.3,1073.18c6.9-.29,18.09.14,30.39,5.12,14.66,5.93,37.78,21.08,38.95,40.79,1.13,19.12-19.77,21.48-22.37,44.21-3.14,27.48,23.81,48.6,15.66,59.06-2.95,3.78-8.84,4.06-12.62,3.89"/>
  <path class="cls-5" d="M410.19,1233.02c-3.64-.1-6.24.72-7.99,1.53-19.94,9.3-13.75,57.49-8.37,78.21.9,3.48,3.11,11.3,9.32,18.94,6.17,7.6,16.27,15,19.72,12.6,1.27-.88,1.52-3.02,1.19-5.69"/>
  <path class="cls-34" d="M737.48,1220.97l-16.36-33.26-18.67,9.18-6.94-14.12-58.56-7.14c-1.07-.13-2.11.38-2.67,1.3l-25.64,42.33s-.13,7.66,4.86,9.88c4.99,2.22,10.8-2.2,10.8-2.2l19-32.38c.37-.63,1.08-.97,1.8-.87l38.1,5.25,3.94,8s-7.89,9.3-2.33,20.61,17.45,10.53,17.45,10.53l3.47,7.06-18.31,34.09c-.37.68-1.11,1.08-1.88,1l-38.57-4.04s-6.42,1.6-6.61,6.76c-.19,5.16,3.69,9.09,3.69,9.09l50.62,7.6c1.31.2,2.6-.44,3.25-1.6l28.2-50.66-8.26-16.79,19.61-9.64ZM709.32,1228.26c-5.79,2.85-12.8.46-15.65-5.33-2.85-5.79-.46-12.8,5.33-15.65,5.79-2.85,12.8-.46,15.65,5.33,2.85,5.79.46,12.8-5.33,15.65Z"/>
  <polygon class="cls-50" points="803.13 1063.36 818.66 1105.44 809.18 1131.2 814.85 1162.84 799.32 1200.93 774.12 1217.17 765.63 1217.77 763.79 1213.74 763.79 1063.36 803.13 1063.36"/>
  <polygon class="cls-50" points="788.64 1299.69 795.38 1321.59 813.33 1345.5 837.56 1347.78 875.32 1341.49 888.71 1353.61 908.91 1347.33 929.1 1321.59 923.27 1297.07 906.89 1306.49 878.84 1305.15 864.48 1293.93 855.21 1299.69 822.3 1271.94 809.18 1287.64 785.94 1291.68 788.64 1299.69"/>
  <path class="cls-50" d="M986.24,1096.01l-27.84,17.64-24.26,4.06-9.26,22.85-7.06,26.1,17.64,22.44-2.65,27.62,19.21,20.93,21.26,26.83,1.87,32.2,1.39,16.09c2.41-5.06,4.95-11.58,6.69-19.4,1.21-5.42,1.8-10.38,2.04-14.67.32-60.9.64-121.79.96-182.69Z"/>
  <line class="cls-21" x1="786.52" y1="1161.1" x2="786.52" y2="1148.83"/>
  <g>
    <line class="cls-21" x1="779.22" y1="1109.46" x2="795" y2="1109.46"/>
    <line class="cls-21" x1="787.11" y1="1101.57" x2="787.11" y2="1117.35"/>
  </g>
  <path class="cls-32" d="M765.36,1107.94c0,18.09,12.79,25.1,12.79,25.1,0,0-13.1,4.99-12.79,22.45.31,17.46,9.04,24.48,20.74,24.48s23.08-7.48,23.08-24.48-14.97-23.23-14.97-23.23c0,0,14.97-5.93,14.97-22.45s-10.45-24.01-21.91-24.01-21.91,4.05-21.91,22.14ZM799.68,1155.53c0,8.75-5.89,15.84-13.16,15.84s-13.16-7.09-13.16-15.84,5.89-15.84,13.16-15.84,13.16,7.09,13.16,15.84ZM799.68,1109.46c0,8.75-5.89,15.84-13.16,15.84s-13.16-7.09-13.16-15.84,5.89-15.84,13.16-15.84,13.16,7.09,13.16,15.84Z"/>
  <g>
    <polygon class="cls-8" points="917.37 1330.88 815.95 1330.88 815.95 1312.29 922.98 1312.77 924.53 1320.98 917.37 1330.88"/>
    <line class="cls-8" x1="834.52" y1="1312.77" x2="834.52" y2="1330.88"/>
    <line class="cls-8" x1="852.39" y1="1312.77" x2="852.39" y2="1330.88"/>
    <line class="cls-8" x1="871.58" y1="1312.77" x2="871.58" y2="1330.88"/>
    <line class="cls-8" x1="889.44" y1="1312.77" x2="889.44" y2="1330.88"/>
    <line class="cls-8" x1="907.07" y1="1312.77" x2="907.07" y2="1330.88"/>
  </g>
  <circle class="cls-37" cx="960.88" cy="1210.09" r="9.47"/>
  <circle class="cls-37" cx="960.88" cy="1134.77" r="9.47"/>
  <rect class="cls-13" x="942.58" y="1137.95" width="88.52" height="66.03"/>
  <line class="cls-10" x1="949.52" y1="1194.86" x2="1024.84" y2="1194.86"/>
  <rect class="cls-9" x="1078.64" y="1203.98" width="63.12" height="115.24"/>
  <rect class="cls-38" x="1081.69" y="1212.97" width="56.99" height="16.45" rx=".49" ry=".49"/>
  <rect class="cls-38" x="1081.69" y="1233.73" width="56.99" height="16.45" rx=".67" ry=".67"/>
  <rect class="cls-38" x="1081.69" y="1253.89" width="56.99" height="16.45" rx=".71" ry=".71"/>
  <rect class="cls-38" x="1081.69" y="1273.58" width="56.99" height="16.45" rx=".68" ry=".68"/>
  <rect class="cls-38" x="1081.69" y="1293.79" width="56.99" height="16.45" rx=".74" ry=".74"/>
  <line class="cls-4" x1="1088.59" y1="1216.72" x2="1088.59" y2="1226.06"/>
  <g>
    <line class="cls-4" x1="1131.98" y1="1216.72" x2="1131.98" y2="1226.06"/>
    <line class="cls-4" x1="1136.65" y1="1221.39" x2="1127.31" y2="1221.39"/>
  </g>
  <line class="cls-4" x1="1131.98" y1="1246.07" x2="1131.98" y2="1236.73"/>
  <g>
    <line class="cls-4" x1="1088.59" y1="1246.07" x2="1088.59" y2="1236.73"/>
    <line class="cls-4" x1="1083.92" y1="1241.4" x2="1093.26" y2="1241.4"/>
  </g>
  <line class="cls-4" x1="1088.59" y1="1257.03" x2="1088.59" y2="1266.37"/>
  <g>
    <line class="cls-4" x1="1131.98" y1="1257.03" x2="1131.98" y2="1266.37"/>
    <line class="cls-4" x1="1136.65" y1="1261.7" x2="1127.31" y2="1261.7"/>
  </g>
  <line class="cls-4" x1="1131.98" y1="1286.38" x2="1131.98" y2="1277.04"/>
  <g>
    <line class="cls-4" x1="1088.59" y1="1286.38" x2="1088.59" y2="1277.04"/>
    <line class="cls-4" x1="1083.92" y1="1281.71" x2="1093.26" y2="1281.71"/>
  </g>
  <line class="cls-4" x1="1088.59" y1="1297.34" x2="1088.59" y2="1306.68"/>
  <g>
    <line class="cls-4" x1="1131.98" y1="1297.34" x2="1131.98" y2="1306.68"/>
    <line class="cls-4" x1="1136.65" y1="1302.01" x2="1127.31" y2="1302.01"/>
  </g>
  <circle class="cls-11" cx="1089.44" cy="1089.8" r="17.6"/>
  <circle class="cls-12" cx="1124.69" cy="1089.8" r="9.8"/>
  <circle class="cls-1" cx="1089.44" cy="1089.8" r="8.39"/>
  <path class="cls-5" d="M1077.24,1221.96c-.57.02-1.42,0-2.43-.19-4.11-.76-6.71-3.6-7.84-4.84-6.92-7.57-11.01-32.3-4.39-35.2.59-.26,1.15-.29,1.51-.29"/>
  <path class="cls-5" d="M1077.1,1242.59c-.41,0-1.06,0-1.84.07-10.48.9-14.72,9.57-17.56,8.33-3.83-1.67-2.4-20.27,4.54-22.37.47-.14,1.08-.24,1.83-.18"/>
  <path class="cls-5" d="M1077.04,1262.48c-.69.06-1.75.15-3.04.22-6.08.35-12.92.74-13.56-1.22-.3-.92.77-2.38,1.94-2.98.67-.34,1.31-.37,1.71-.36"/>
  <path class="cls-5" d="M1077.04,1282.43c-.76-.01-1.83-.02-3.11,0-8.63.21-14.08.34-15.64,3.33-1.33,2.55.24,7.09,3.22,8.77.93.53,1.86.7,2.58.75"/>
  <path class="cls-5" d="M1077.25,1302.7c-.67-.04-1.66,0-2.65.5-2.79,1.43-1.95,4.79-4.46,6.97-2.41,2.09-6.7,2.05-9.06.2-.22-.18-2.18-1.74-1.78-3.38.34-1.38,2.29-2.47,4.79-2.24"/>
  <path class="cls-5" d="M1142.96,1221.62c1.01.16,2.39.3,4.02.26,0,0,3.01-.08,5.68-.89,3.61-1.1,10.82-5.53,12.29-13.58.96-5.27-.41-12.83-5.41-15.29-1.57-.77-3.14-.86-4.23-.81"/>
  <path class="cls-5" d="M1143.42,1242.51c.85-.08,2.08-.16,3.57-.13,6.46.12,8.13,2.08,11.03,1.3,3.39-.91,6.79-5.12,6.13-9.42-.46-3.03-2.87-5.62-5.69-6.53-1.26-.41-2.39-.41-3.14-.34"/>
  <path class="cls-5" d="M1143.29,1262.04c1.09-.07,2.79-.15,4.87-.13,3.58.04,4.47.33,6.68.13,2.87-.26,5.62-.52,6.42-2.27.92-2-.99-5.3-3.57-6.49-.92-.42-1.78-.51-2.37-.52"/>
  <path class="cls-5" d="M1143.22,1303.11c.64.02,1.58.06,2.73.13,4.68.29,7.02.43,8.4.94,4.02,1.47,7.33,6.44,6.91,11-.06.65-.41,4.39-3.25,5.96-1.02.56-2.03.66-2.69.66"/>
  <path class="cls-5" d="M1143.6,1282.33c.59,0,1.47-.07,2.48-.37,3.76-1.14,4.43-4.19,7.34-5.13,2.58-.83,5.17.57,5.85.99,4.63,2.78,6.29,10.86,2.57,14.85-2.11,2.25-5.24,2.46-6.53,2.47"/>
  <g>
    <circle class="cls-20" cx="1276.78" cy="1161.78" r="13.84"/>
    <line class="cls-20" x1="1270.51" y1="1142.59" x2="1257.95" y2="1155.14"/>
    <line class="cls-20" x1="1265.05" y1="1142.2" x2="1257.57" y2="1149.68"/>
    <line class="cls-20" x1="1263.99" y1="1136.93" x2="1252.29" y2="1148.62"/>
    <line class="cls-20" x1="1257.86" y1="1170.01" x2="1270.41" y2="1182.57"/>
    <line class="cls-20" x1="1295.88" y1="1169.34" x2="1283.33" y2="1181.89"/>
    <line class="cls-20" x1="1257.47" y1="1175.47" x2="1264.96" y2="1182.96"/>
    <line class="cls-20" x1="1295.68" y1="1175.47" x2="1288.19" y2="1182.96"/>
    <line class="cls-20" x1="1282.35" y1="1141.66" x2="1294.91" y2="1154.22"/>
    <line class="cls-20" x1="1286.87" y1="1140.49" x2="1294.36" y2="1147.98"/>
    <line class="cls-20" x1="1252.2" y1="1176.53" x2="1263.9" y2="1188.23"/>
  </g>
  <g>
    <circle class="cls-20" cx="1112.91" cy="1170.3" r="13.84"/>
    <line class="cls-20" x1="1106.64" y1="1151.65" x2="1094.09" y2="1164.2"/>
    <line class="cls-20" x1="1101.18" y1="1151.26" x2="1093.7" y2="1158.75"/>
    <line class="cls-20" x1="1100.12" y1="1145.99" x2="1088.42" y2="1157.69"/>
    <line class="cls-20" x1="1093.99" y1="1179.08" x2="1106.55" y2="1191.63"/>
    <line class="cls-20" x1="1093.61" y1="1184.53" x2="1101.09" y2="1192.02"/>
    <line class="cls-20" x1="1088.33" y1="1185.59" x2="1100.03" y2="1197.29"/>
    <line class="cls-20" x1="1119.63" y1="1190.29" x2="1132.19" y2="1177.73"/>
    <line class="cls-20" x1="1125.09" y1="1190.67" x2="1132.57" y2="1183.19"/>
    <line class="cls-20" x1="1126.15" y1="1195.95" x2="1137.85" y2="1184.25"/>
    <line class="cls-20" x1="1132.28" y1="1162.86" x2="1119.72" y2="1150.31"/>
    <line class="cls-20" x1="1132.67" y1="1157.4" x2="1125.18" y2="1149.92"/>
    <line class="cls-20" x1="1137.94" y1="1156.34" x2="1126.24" y2="1144.65"/>
  </g>
  <g>
    <circle class="cls-20" cx="1215.13" cy="1322.53" r="12.29"/>
    <line class="cls-20" x1="1235.12" y1="1315.28" x2="1222.56" y2="1302.73"/>
    <line class="cls-20" x1="1235.5" y1="1309.82" x2="1228.02" y2="1302.34"/>
    <line class="cls-20" x1="1240.78" y1="1308.76" x2="1229.08" y2="1297.07"/>
    <line class="cls-20" x1="1207.69" y1="1302.64" x2="1195.14" y2="1315.19"/>
    <line class="cls-20" x1="1202.23" y1="1302.25" x2="1194.75" y2="1309.73"/>
    <line class="cls-20" x1="1201.17" y1="1296.97" x2="1189.48" y2="1308.67"/>
    <line class="cls-20" x1="1195.73" y1="1328.07" x2="1208.28" y2="1340.63"/>
    <line class="cls-20" x1="1222.56" y1="1341.31" x2="1235.12" y2="1328.76"/>
    <line class="cls-20" x1="1228.02" y1="1341.7" x2="1235.5" y2="1334.21"/>
    <line class="cls-20" x1="1229.08" y1="1346.97" x2="1240.78" y2="1335.27"/>
  </g>
  <line class="cls-6" x1="1179.88" y1="1203.98" x2="1179.88" y2="1266.37"/>
  <path class="cls-6" d="M1149.32,1072.21h46s59.55.5,85.94,55.13"/>
  <line class="cls-6" x1="1248.4" y1="1252.76" x2="1272.95" y2="1312.46"/>
  <line class="cls-6" x1="1077.1" y1="1115.76" x2="1077.1" y2="1191.31"/>
  <line class="cls-6" x1="424.06" y1="1081.41" x2="424.06" y2="1311.36"/>
  <line class="cls-6" x1="1077.04" y1="1363.44" x2="1077.04" y2="1330.88"/>
  <circle class="cls-33" cx="1386.43" cy="1092.39" r="17.38"/>
  <path class="cls-42" d="M1414.99,1100.3c-1.42,4.83-6.09,3.33-6.09,3.33l-26-7.63c-.12-1.07-.2-2.92.45-5.07.62-2.07,1.64-3.53,2.31-4.35,8.67,2.54,17.33,5.09,26,7.63,0,0,2.39.64,3.27,2.73.67,1.58.19,3.01.06,3.37"/>
  <circle class="cls-33" cx="1545.78" cy="1092.39" r="17.38"/>
  <circle class="cls-2" cx="1470.12" cy="1083.1" r="8.08"/>
  <path class="cls-42" d="M1565.13,1115.12c-3.68,3.43-6.94-.25-6.94-.25l-18.47-19.83c.44-.98,1.32-2.61,2.98-4.13,1.59-1.46,3.21-2.2,4.21-2.56,6.16,6.61,12.31,13.22,18.47,19.83,0,0,1.73,1.76,1.42,4.01-.23,1.7-1.38,2.69-1.67,2.93"/>
  <rect class="cls-2" x="1415.15" y="1077.84" width="30.82" height="8.13" rx="1.51" ry="1.51"/>
  <rect class="cls-2" x="1490.58" y="1077.84" width="30.82" height="8.13" rx="1.51" ry="1.51"/>
  <rect class="cls-33" x="1441.28" y="1245.75" width="136.51" height="9.16" rx="1.51" ry="1.51" transform="translate(2759.87 -259.2) rotate(90)"/>
  <rect class="cls-29" x="1435.78" y="1102.11" width="78.58" height="41.72"/>
  <path class="cls-40" d="M1206.85,1426.3c3.22,0,3.22-5,0-5s-3.22,5,0,5h0Z"/>
  <path class="cls-23" d="M1145.06,1518.41c25.98,4.68,44.74,15.26,61.91,4.14,15.04-9.74,16.71-28.55,32.56-31.01,10.47-1.62,22.59,4.07,23.26,10.08,1.17,10.6-33.83,17.92-32.56,25.58,1.15,6.92,31.72,12.78,59.69,2.33,13.39-5,13.52-9.01,32.56-19.38,21.05-11.47,37.88-20.63,57.36-20.16,21.92.54,22.71,12.69,62.79,25.58,18.44,5.93,30.87,9.93,47.29,8.53,24.72-2.11,28.11-13.87,51.16-18.6,28.13-5.78,32.45,9.8,72.87,12.4,36.95,2.38,70.35-8.26,80.62-11.63,24.25-7.94,30.55-14.56,48.02-14.27,25.55.43,33.13,14.93,50.43,18.14,43.36,8.05,102.78-63.18,126.36-132.56,17.23-50.7,12.9-93.26,8.71-134.29-3.92-38.41-10.53-97.24-50.8-153.7-3.9-5.47-40.31-55.33-89.83-66.93-9.1-2.13-24.61-5.54-33.64,3.22-7.31,7.09-9.2,21.02-3.58,27.2,4.8,5.28,11.55,1.05,25.77,4.29,15.2,3.47,30.42,13.54,29.35,19.68-1.11,6.34-19.45,7.8-20.4,7.87-14.52,1.06-26.11-3.86-44.74-13.6-36.82-19.25-35.02-22.77-47.96-25.77-4.95-1.15-37.98-8.21-54.04,11.45-12.93,15.83-10.21,43.3-.72,47.6,9,4.08,17.47-15.66,39.37-17.18,19.94-1.38,35.66,13.4,40.44,17.89,11.08,10.42,25.06,30.64,19.68,37.58-9.3,12-61.3-35.46-101.71-16.38-21.94,10.36-37.26,39.19-29.98,47.51,4.07,4.65,12.77,4.88,26.33,4.38,24.61-.91,25.17-8.29,37.44-6.29,20.32,3.32,23.02,24.26,49.35,30.04,3.35.74,6.14,1.02,9.78,3.13,10.98,6.37,17.92,22.51,13.47,35.13-.95,2.69-2.24,4.71-3.15,5.96-12.46-5.93-15.39-5.57-15.39-5.57-4.83.6-10.3,4.64-10.73,9.76-.41,4.8,3.79,8.37,4.29,8.78,5.4,4.46,14.8,3.83,23.66-1.46,9.5,6.21,11.33,11.69,9.68,23.39-1.64,11.69,6.43,26.31,6.43,26.31,15.34,25.84,15.61,34.33,12.72,37.14-2.14,2.09-7.06,2.08-9.8-.04-4.04-3.13-.76-8.9-4.31-16.14-2.74-5.6-9.28-11.52-14.73-10.18-5.53,1.37-8.77,9.92-7.93,16.65,1.13,9.04,9.01,9.79,11.16,18.06,3.69,14.17-13.72,34.03-20.64,31.89-2.9-.89-3.8-5.59-3.9-6.19-1.57-8.79,8.74-12.76,8.3-21.56-.3-5.92-5.38-12.15-11.79-13.64-6.19-1.44-13.04,1.64-16.19,6.48-5.95,9.15,5.22,18.59,1.37,28.18-5.63,14.02-38.09,15.26-59.15,11.58-20.13-3.52-34.85-12.39-43.06-18.25-6.69-7.47-19.06-19.77-37.56-29.34-37.06-19.18-55.55-5.1-117.55-22.3-32.74-9.08-48.63-14.71-55.43-17.08-24.45-8.53-26.54-10.97-40.94-10.26-15.61.77-66.82,6.3-104.57,40.97-26.21,24.07-36.59,34.69-54.34,32.96-12.29-1.2-16.62-8.63-30.64-8.37-17.66.34-23.85,12.39-38.09,18.66-32.06,14.11-51.28-24.7-99.35-23.18-37.87,1.2-48.9,26.01-86.11,19.87-16.2-2.67-28.66-9.78-36.63-15.34-6.03-2.06-13.38-4.04-21.85-4.6-13.66-.9-32.78,1.01-54.62,12.24,0,0-7.32,3.17-20.32.73-25.63-4.82-36.25-21.62-54.34-32.96-19.12-11.98-44.27-9.58-94.57-4.78-52.45,5.01-55.84,14.33-87.76,11.59-43.66-3.74-45.36-21.86-73.69-19.04-49.38,4.91-55.7,61.14-101.84,61.27-25.43.07-37.2-16.97-67.89-9.94-14.33,3.28-28.1,10.74-32.49,5.58-4.71-5.53,7.66-18.52,1.37-28.18-3.15-4.84-10-7.92-16.19-6.48-6.42,1.5-11.49,7.72-11.79,13.64-.45,8.8,9.87,12.77,8.3,21.56-.11.6-1,5.3-3.9,6.19-6.93,2.14-24.33-17.72-20.64-31.89,2.15-8.27,10.03-9.02,11.16-18.06.84-6.73-2.4-15.28-7.93-16.65-5.45-1.35-11.99,4.58-14.73,10.18-3.54,7.25-.26,13.01-4.31,16.14-2.74,2.12-7.66,2.13-9.8.04-2.88-2.81-2.62-11.3,12.72-37.14,0,0,8.08-14.62,6.43-26.31-1.64-11.69.18-17.17,9.68-23.39,8.86,5.3,18.26,5.92,23.66,1.46.5-.42,4.7-3.98,4.29-8.78-.44-5.12-5.9-9.16-10.73-9.76,0,0-2.93-.36-15.39,5.57-.91-1.25-2.2-3.27-3.15-5.96-4.46-12.61,2.48-28.76,13.47-35.13,4.02-2.33,7.81-2.92,9.3-3.08,0,0,.24-.03.48-.05,2.78-.25,30.56.95,46.61,20.96,16.67,20.79,8.3,46.45,21.29,50.32.36.11,4.25,1.21,7.74-.65,10.86-5.76,8.99-35.31,2.58-52.9-19.01-52.18-99.74-58.81-96.79-77,1.26-7.78,17.22-14.06,29.86-12.84,24.4,2.37,31.04,31.07,56.3,31.46,1.16.02,14.39.09,17.39-6.62,3.39-7.58-8.35-19.16-9.94-20.7-17.81-17.24-41.71-13.45-42.23-19.04-.41-4.51,14.65-12.56,31.46-12.42,28.79.24,43.88,27.18,49.68,23.18,5.59-3.85-6.29-37.3-30.96-63.88-11.13-11.99-29.78-32.09-59.29-37.15-43.89-7.53-79.41,23.76-87.16,30.58-41.96,36.96-51.01,95.08-55.08,121.2-4.4,28.27-3.34,52.25-9.03,52.9-5.34.61-12.37-19.85-15.07-34.12-1.6-8.48-5.79-30.65,4.26-53.59,10.85-24.77,31.14-34.12,28.7-38.23-2.47-4.16-25.92,1.02-43.99,13.76-34.83,24.55-40.79,70.92-45.11,108.56-3.85,33.64-12.64,110.36,33.64,185.01,11.09,17.89,29.23,46.43,64.66,68.26,8.65,5.33,55.71,34.16,112.9,27.74,26.06-2.92,31.69-10.55,54.83-7.74,29.26,3.55,35.91,17.63,62.6,16.94,24.21-.63,25.63-12.38,47.48-10.71,23.33,1.78,26.27,16.48,51.16,18.6,16.42,1.4,28.84-2.59,47.29-8.53,40.08-12.89,40.87-25.04,62.79-25.58,19.48-.48,36.31,8.69,57.36,20.16,19.04,10.37,19.17,14.38,32.56,19.38,27.97,10.45,58.54,4.6,59.69-2.33,1.27-7.66-33.72-14.98-32.56-25.58.66-6.01,12.79-11.7,23.26-10.08,14.7,2.28,16.61,17.49,32.56,31.01,22.92,19.42,53.75,17.48,60.47,17.05,33.41-2.11,55.1-21.88,61.24-27.91,8.68-5.03,22.13-10.99,38.01-9.85,26.62,1.91,32.63,21.79,56.3,33.12,46.39,22.21,74.26-29.74,147.38-16.56Z"/>
  <path class="cls-44" d="M103.76,1197.88c-4.64.63-7.48,7.41-9.14,11.85-32.35,86.61,2.31,155.98,2.31,155.98,10.67,21.35,22.32,34.31,37.2,50.88,8.44,9.39,72.27,76.64,114.17,69.97,11.23-1.79,27.19-7.96,55.4-9.08,17.25-.69,31.83.81,42.28,2.42,1.55.24,2.7-1.38,1.98-2.78l-34.34-66.62c-.38-.73-1.2-1.13-2.02-1.01-1.34.19-11.49-1.32-15.76-3.04-6.93-2.8-11.7-11.74-12.59-18.69-.34-2.71-.27-6.47-2.13-11.83-.68-1.97-1.97-5.68-3.49-5.62-1.6.06-2.63,4.29-2.91,5.43-1.32,5.42-.02,8.43,0,12.6,0,1.18-.05,10.04-5.2,14.43-7.1,6.06-19.02-1.52-28.25-6.16-.68-.34-1.11-1.06-1.07-1.82.94-20.07.59-40.36-4.96-41.6-5.33-1.19-11.26,16.18-16.53,15.3-4.98-.83-8.7-17.92-6.13-79.32,0-.19,0-.37-.06-.55-.02-.09-9.22-40.61,10.02-63.9,12.21-14.78,39.44-26.94,48.45-30.97,2.78-1.24,9.31-4.06,9.4-8.07.15-6.11-14.13-11.21-17.61-12.45-3.98-1.42-10.64-3.71-19.28-3.07-13.19.98-18.15,7.87-20.85,6-5.95-4.13,3.37-47.26,35.23-70.87,16.71-12.38,47.94-25.56,73.46-22.55,2.85.34,6.89,1.02,7.52-.37,1.86-4.13-25.14-29.19-52.46-27.15-21.27,1.59-34.88,19.02-40.72,14.13-5.02-4.21,3.42-18.48,0-20.73-4.77-3.14-31.42,17.9-46.84,49.64-20.9,43.02-12.14,87.04-17.6,87.54-4.57.42-8.57-32.78-13.99-32.49-3.11.17-3.79,11.17-10.68,54.27-4.14,25.88-4.78,27.47-3.43,32.38,0,0,2.46,8.98,5.73,33.5.03.22.1.78-.22,1.24-.6.88-2.13.72-2.42.78-13.51,3.02-35.14-79.95-52.49-77.61Z"/>
  <path class="cls-44" d="M349.7,1413.21c-11.93,18.55,10.32,66.64,43.72,77.71,24.91,8.26,35.74-10.92,75.7-6.25,29.49,3.45,31.72,14.63,58.05,15.92,32.67,1.6,70.98-13.57,72.39-30.44,1.36-16.33-33.22-17.89-75.8-60.63-25.4-25.49-28.05-39.95-44.97-42.12-20.96-2.69-26.91,17.95-63.75,31.3-37.65,13.65-56.82,1.24-65.35,14.49Z"/>
  <path class="cls-44" d="M639.16,1370.68c31.58-29.48,81.55-18.92,87.81-17.5,48.35,36.98,83.89,41.42,107.64,38.42,19.26-2.44,34.38-10.24,57.99-4.27,23.16,5.85,48.85,23.52,47.24,38.7-2,18.93-44.81,18.72-52.93,47.24-4.18,14.68,5.03,22.22-1.14,30.74-13.01,17.96-65.76.67-71.15-1.14-31.92-10.74-35.56-22.28-62.04-25.61-20.01-2.52-45.19.65-48.32,10.94-3.57,11.75,23.21,27.48,19.86,32.89-2.72,4.4-22.19-3.14-27.32-5.12-16.28-6.3-34.73-13.44-51.23-32.44-13.6-15.66-19.5-32.06-22.2-42.28-2.41-5.41-8.22-20.39-3.98-38.55,4.06-17.35,14.94-27.51,19.77-32.02Z"/>
  <path class="cls-44" d="M948.37,1479.54c1.87,6.49,19.75.1,37,10.81,14.89,9.25,11.81,20.18,22.2,27.89,23.45,17.4,56.01-25.74,112.28-22.82,36.58,1.9,60.01,22.06,75.48,8.42,7.64-6.74,5.09-14.45,12.6-24.3,12.72-16.7,38.58-18.87,60.97-17.38-2.8-65.29-12.1-81.24-20.56-82.8-14.31-2.63-26.93,35.87-51.8,34.72-15.5-.72-16.32-16.37-35.6-21.72-29.24-8.12-41.86,19.87-73.68,16.03-28.06-3.39-28.92-26.46-60.33-31.3-25.87-3.99-56.18,6.88-60.33,22.77-3.72,14.22,16.18,22.4,13.66,40.41-3.03,21.67-34.62,29.73-31.87,39.27Z"/>
  <path class="cls-44" d="M1288.63,1370.68c-.8,18.43,14.01,21.54,20.16,48.11,7.68,33.18-9.58,53.55,0,61.47,11.7,9.66,35.58-22.23,74.02-20.21,33.18,1.74,33.63,26.46,69.98,32.84,43.38,7.61,57.25-25.07,100.48-14.31,24.37,6.06,33.54,19.82,50.5,14.31,14.5-4.7,26.34-20.77,26.69-36.21.47-20.94-20.33-35.62-47.41-54.73-17.83-12.58-36.07-25.46-62.96-32.17-53.48-13.35-69.4,15.61-108.91.9-39.89-14.85-41.91-51.16-71.22-50.51-24.7.54-50.31,26.93-51.34,50.51Z"/>
  <path class="cls-44" d="M1626.84,1413.51c-4.14,6.04,21.57,20.23,23.34,43.83,1.6,21.41-18.15,33.14-13.66,39.84,6.83,10.21,48.23-23.37,103.59-18.78,34.5,2.86,39.92,17.68,64.32,13.66,37.21-6.13,59.47-46.37,71.58-68.26,19.46-35.18,25.93-71.59,38.12-144.85,2.27-13.66,2.81-18.72,2.98-24.68.93-32.34-10.02-53.04-31.84-99.26-30.08-63.74-37.29-83.8-46.69-82.43-6.62.97-10.3,11.88-13.94,22.63-10.54,31.2-2.29,57.05-6.74,58.33-4.86,1.39-10.69-30.74-37.38-49.65-14.6-10.35-35.93-17.08-42.12-10.25-11.54,12.74,35.48,65.95,25.03,76.21-3.7,3.64-13.66-.4-33.56-8.48-28.36-11.5-37.09-20.28-55.21-19.92-8.61.17-20.99,2.43-21.63,6.83-.94,6.49,23.77,16.53,64.32,33.01,12.74,5.18,18.78,7.34,26.18,13.66,10.34,8.83,9.61,14.03,23.34,33.58,15.06,21.44,21.33,22.74,22.2,33.01,1.13,13.4-8.97,15.8-11.95,31.3-5.46,28.4,22.99,48.63,14.8,60.33-6.73,9.61-27.46-1.8-37.57,10.25-7.99,9.53.66,21.81-9.11,32.44-5,5.44-13.67,9.19-21.06,7.4-10.17-2.47-10.41-13.62-17.64-14.23-10.24-.86-13.06,21.21-30.74,26.18-2.63.74-8.58.3-20.49-.57-21.98-1.61-26.74-3.66-28.46-1.14Z"/>
  <path class="cls-44" d="M571.4,1353.51c-15.25-11.59-44.9-3.38-46.61,5.63-1.51,7.93,18.77,15.77,16.34,25.63-1.2,4.86-6.84,5.83-6.48,9.44.66,6.52,19.47,7.52,19.86,13.24.28,4.16-9.54,5.7-9.58,10.14-.03,3.88,7.44,5.95,29.29,14.22,15.55,5.89,19.52,7.78,22.53,5.49,5.05-3.83-.82-13.15,5.63-21.55,4.66-6.06,11.85-6.58,11.69-10.28-.15-3.56-6.84-4.1-7.33-8.03-.6-4.79,9.02-6.57,10.83-14.02,1.31-5.35-1.7-12.49-6.61-15.13-7.44-4.01-14.11,5.08-23.66,2.25-8.39-2.48-7.73-10.83-15.91-17.04Z"/>
  <path class="cls-44" d="M1402.48,1337.96c.98-1.37,3.24-3.56,10.26-4.06,11.73-.84,15.71,4.52,28.73,7.23,9.39,1.96,8.87-.51,24.96,1.32,8.53.97,21.93,2.49,22.23,5.81.07.79-.5,2.82-16.76,8.21-19.7,6.53-29.55,9.79-40.69,8.55-3.71-.41-23.38-2.61-28.73-14.99-.41-.96-3.17-7.6,0-12.07Z"/>
  <path class="cls-22" d="M305.27,1467.42c-9.98,6.18-19.3,5.54-40.45,5.11-41.37-.83-37,.7-44.17-.41-27.05-4.18-53.9-32.42-53.9-32.42-17.8-18.68-11.78-20.66-32.42-42.91-11.76-12.68-17.31-15.91-17.43-23.14-.28-17.08,29.96-35.41,41.34-28.77,7.85,4.58.03,19.31,10.54,31.61,10.27,12.02,23.57,4.77,34.45,16.54,12.1,13.09,2.59,29.59,12.56,36.14,12.32,8.1,30.16-14.32,49.44-6.27,11.68,4.88,9.68,15.03,23.58,20.72,15.18,6.2,28.16-1.57,30.86,3.53,2.35,4.43-5.2,14.57-14.4,20.28Z"/>
  <path class="cls-22" d="M371.6,1427.34c-9.67,13.73,2.33,42.59,20.4,50.22,10.64,4.5,22.59,1.29,46.14-5.02,15.62-4.19,16.91-6.5,24.32-6.26,17.48.56,24.52,13.88,38.23,21.01,34.17,17.8,86.16-15.08,84.75-20.4-1.18-4.45-39.33,11.87-58.39-6.59-14.95-14.48-4.03-36.71-16.64-44.26-17.21-10.31-42.89,27.93-74.4,18.83-14.91-4.31-18.56-15.59-36.8-16.64-2.96-.17-20.38-1.17-27.62,9.1Z"/>
  <path class="cls-22" d="M637.14,1401.21c-12.03,6.88,1.19,74.61,29.01,80.3,15.88,3.24,21.43-16.81,51.6-25.34,36.75-10.4,74.91,6.24,74.5,10.38-.27,2.72-17.19.58-18.01,4.58-1.53,7.42,52.75,33.55,70.22,17.4,8.81-8.14.27-19.65,9.77-33.89,14.12-21.16,47.15-17.01,47.63-25.34.34-5.88-15.82-13.23-31.75-15.57-28.7-4.21-37.14,10.7-64.12,9.16-15.36-.88-28.46-8.02-54.65-22.29-34.03-18.54-43.04-31.2-54.04-26.87-15.02,5.92-10.2,34.24-25.65,39.39-14.16,4.72-27.13-16.12-34.5-11.91Z"/>
  <path class="cls-22" d="M1020.09,1433.76c-.78,12.05-28.17,17.18-26.97,26.59.85,6.61,14.61,6.08,19.75,17.47,3.98,8.8-1.48,15.21,2.28,18.61,5.26,4.76,16.86-6.95,39.5-12.53,19.51-4.81,22.86.92,43.3-4.94,17.88-5.13,17.1-10.03,26.97-10.26,22.53-.51,31.03,24.95,46.72,21.65,10.25-2.16,8.56-13.45,24.4-27.53,19.26-17.11,39.26-15.98,39.03-21.85-.23-6-21.32-12.43-42.16-11.77-23.66.74-27.09,9.97-49,11.39-22.56,1.47-40.73-6.89-55.45-13.67-27.31-12.57-28.24-22.24-49.76-28.11-23.68-6.45-48.41-1.79-49.76,4.94-1.64,8.19,32.02,16.46,31.15,30.01Z"/>
  <path class="cls-22" d="M1339.97,1341.59c-13.95,1.55-22.31,24.12-24.7,35.1-3.18,14.64-2.04,37.69,12.13,49.83,25.77,22.06,72.96-10.45,92.29,11.27,9.89,11.11,2.02,24.68,13,32.5,11.24,8,24.08-2.94,52.86-8.23,44.35-8.15,72.1,7.14,79.29-5.63,4.26-7.56-2.27-18.6-4.33-22.1-14.49-24.53-50.24-28.44-78.86-31.2-52.52-5.05-57.24,8.14-79.73-1.73-38.05-16.71-41.68-62.05-61.96-59.79Z"/>
  <path class="cls-22" d="M1664.55,1475.95c2.77,4.3,25.94-15.5,55.65-16.37,29.74-.87,35.87,17.59,67.82,16.52,7.99-.27,30.63-1.02,42.54-16.05,15.01-18.95-2.35-41.26,13.09-60.32,11.35-14.01,24.18-6.24,36.94-20.11,20.45-22.23,7.46-63.91,4.46-73.56-9.19-29.52-29.96-55.87-38.13-52.86-7,2.58,3.03,23.9-9.53,50.69-8.3,17.71-16.02,15.5-23.66,34.11-8.48,20.65-2.07,30.88-12.16,40.68-8.7,8.46-16.01,3.31-29.93,10.76-20.82,11.14-14.58,30.64-31.31,38.37-7.98,3.69-10.13-.18-50.99-2.84-18.27-1.19-25.95-.94-27.59,2.81-2.61,5.97,13.36,13.39,13.09,27.12-.23,11.74-12.14,18.17-10.29,21.04Z"/>
  <path class="cls-22" d="M1753.56,1188.24c-.46,2.4,2.31,4.56,9.42,10.34,14.49,11.78,21.73,17.67,23.92,20.19,6.35,7.34,7.22,16.48,8.7,34.48,2.69,32.78-3.48,49.19,1.55,51.26,5.15,2.11,17.97-12.44,25.16-26.72,7.77-15.42,5.4-23.42,13.05-28.27,8.8-5.58,22.26-1.54,30.44,3.42,20.39,12.36,20.08,37.69,26.72,37.28,6.64-.41,14.26-26.21,10.56-51.88-2.12-14.74-8.15-26.83-20.2-51.01-11.31-22.69-12.54-20.41-18.63-35.05-10.62-25.53-11.73-44.18-17.33-44.24-2.75-.03-4.81,4.41-7.8,11.27-3.87,8.9-5.92,17.79-8.23,38.56-.45,4.03,1.06,10.39-1.73,17.76-1.39,3.67-2.33,6.33-4.33,6.93-4.03,1.22-10.53-6.26-26.43-32.46-17.9-29.49-22.59-41.34-29.51-40.7-4.94.46-9.15,7.13-9.94,12.74-1.21,8.59,5.86,12.86,16.46,31.69,6.5,11.54,9.71,17.4,7.77,21.75-4.48,10.04-28.32,5.98-29.61,12.65Z"/>
  <text class="cls-19" transform="translate(289.12 1471.01)"><tspan x="0" y="0">Dobson </tspan><tspan class="cls-31" x="307.01" y="0">U</tspan><tspan x="368.14" y="0">nde</tspan><tspan class="cls-45" x="508.98" y="0">r</tspan><tspan class="cls-35" x="550.73" y="0">w</tspan><tspan x="624.53" y="0">a</tspan><tspan class="cls-27" x="667.65" y="0">t</tspan><tspan class="cls-51" x="702.37" y="0">er </tspan><tspan class="cls-26" x="802.39" y="0">R</tspan><tspan x="860.37" y="0">ob</tspan><tspan class="cls-26" x="954.26" y="0">o</tspan><tspan x="998.98" y="0">tics </tspan><tspan class="cls-43" x="1156.61" y="0">T</tspan><tspan x="1205.38" y="0">eam</tspan></text>
  <text class="cls-36" transform="translate(289.12 1462.76)"><tspan x="0" y="0">Dobson </tspan><tspan class="cls-31" x="307.01" y="0">U</tspan><tspan x="368.14" y="0">nde</tspan><tspan class="cls-45" x="508.98" y="0">r</tspan><tspan class="cls-35" x="550.73" y="0">w</tspan><tspan x="624.53" y="0">a</tspan><tspan class="cls-27" x="667.65" y="0">t</tspan><tspan class="cls-51" x="702.37" y="0">er </tspan><tspan class="cls-26" x="802.39" y="0">R</tspan><tspan x="860.37" y="0">ob</tspan><tspan class="cls-26" x="954.26" y="0">o</tspan><tspan x="998.98" y="0">tics </tspan><tspan class="cls-43" x="1156.61" y="0">T</tspan><tspan x="1205.38" y="0">eam</tspan></text>
  <path class="cls-22" d="M92.61,1290.55c-1.35,20.2,3.02,50.68,16.46,53.97,12.81,3.14,20.74-21.64,38.84-20.82,21.3.98,31.07,36.28,41.47,33.32,4.71-1.34,6.58-9.68,9.22-41.57,3.2-38.73,1.91-44.41,3.95-60.46,5.32-41.94,21.68-63.03,17.11-65.82-5.1-3.11-32.45,18.88-44.76,51.34-9.67,25.5-5.46,45.35-17.11,50.02-10.23,4.1-23.73-7.09-25.96-9-17-14.6-14.21-35.83-20.78-36.42-6.9-.62-16.88,22.21-18.43,45.42Z"/>
</svg>